PathFileType	4	(X/Y/Z)	D:\TRACE\spot_10-12-23\spot_body_motion_3_5-v60.trc
DataRate	CameraRate	NumFrames	NumMarkers	Units	OrigDataRate	OrigDataStartFrame	OrigNumFrames
100.00	100.00	      28	9	mm	100.00	5251	      7000
Frame#	Time	front left toe			Front right toe			aft left toe			aft right toe			Arm			FL body			FR body			AL Body			AR Body			
		X1	Y1	Z1	X2	Y2	Z2	X3	Y3	Z3	X4	Y4	Z4	X5	Y5	Z5	X6	Y6	Z6	X7	Y7	Z7	X8	Y8	Z8	X9	Y9	Z9	

5251	52.500	-259.30304	18.29109	142.74783	218.56142	148.74249	40.04691	-219.22585	29.80661	598.95233	262.78680	26.76911	501.24283	-90.04773	813.84509	-86.57423	-174.44279	552.07483	-52.51448	-22.91729	555.29462	-76.27901	-37.78492	565.36475	820.66022	110.86617	563.09302	799.41418	
5252	52.510	-259.34457	18.26208	142.81355	217.02364	147.23225	43.07889	-219.18677	29.99729	598.89581	262.83865	26.78556	501.19690	-89.05486	813.93994	-86.14153	-174.18103	552.12659	-51.97692	-22.92988	555.11615	-75.90675	-37.35671	565.56561	820.85339	111.39977	562.88519	799.74738	
5253	52.520	-259.34634	18.21731	142.85097	214.93118	146.74089	45.53114	-219.05496	30.05119	598.85724	262.86551	26.79166	501.11365	-88.51385	813.73438	-85.60292	-173.94418	552.04694	-51.23918	-22.68748	554.99768	-75.53559	-36.85510	565.58276	821.12634	111.90123	562.75616	800.08179	
5254	52.530	-259.29419	18.21229	142.88281	214.34662	146.99445	47.87411	-219.06801	30.25824	598.83923	262.98904	26.82588	501.19305	-88.41563	813.57538	-85.12178	-173.78671	551.97095	-51.02718	-22.43435	554.84204	-75.40285	-37.17286	565.83655	821.76447	112.61695	562.78235	800.91187	
5255	52.540	-259.18668	18.21612	142.83432	213.54300	147.34016	49.96314	-218.96672	30.36301	598.79681	263.11505	26.80527	501.16730	-88.53982	813.39032	-84.76916	-173.45004	551.79718	-50.71071	-21.83737	554.64587	-74.44803	-36.63560	565.82996	822.77216	112.98672	562.77014	801.12372	
5256	52.550	-259.13937	18.30538	142.79700	211.99840	147.82474	52.10460	-218.89142	30.43897	598.72107	263.25610	26.80776	501.11328	-88.57290	813.20154	-84.54715	-172.97935	551.55676	-50.27553	-21.39603	554.54999	-74.05833	-35.79778	565.46326	822.60272	113.41666	562.78333	801.52863	
5257	52.560	-259.08673	18.36094	142.81831	210.22508	146.95023	53.94350	-218.82379	30.55754	598.76361	263.32587	26.85310	501.14520	-88.44645	812.96021	-84.17822	-172.50031	551.41974	-49.81722	-21.09861	554.56683	-73.80004	-35.57897	565.35168	822.84839	114.16956	563.16382	802.63086	
5258	52.570	-259.35818	18.53794	142.73576	207.81569	145.23657	55.79833	-218.77115	30.59365	598.73639	263.03479	26.75317	501.12729	-88.00753	813.07465	-83.74825	-172.15582	551.48730	-49.43002	-20.79715	554.70837	-73.88898	-35.42487	565.22864	823.06433	114.29230	563.25061	802.79327	
5259	52.580	-259.28821	18.60140	142.76175	205.74113	142.15018	57.05220	-218.74532	30.57495	598.74670	262.47803	26.51952	500.92984	-87.55255	813.14825	-83.33205	-171.79846	551.51959	-49.18997	-20.32397	554.76117	-73.61798	-35.12114	565.22845	823.43646	114.67928	563.39886	803.54803	
5260	52.590	-259.23270	18.66784	142.75082	204.16576	136.23119	58.13690	-218.73547	30.61104	598.71552	261.87347	26.38437	500.85202	-87.09154	813.26160	-83.00263	-171.36903	551.70868	-48.89637	-19.97129	554.77985	-73.19300	-34.65398	565.35571	824.19971	115.01347	563.46246	804.23608	
5261	52.600	-259.17844	18.73116	142.73459	202.85716	127.56365	59.09177	-218.64172	30.67463	598.72827	264.05380	27.31798	501.43567	-86.58003	813.42792	-82.72028	-170.86337	551.81006	-48.35815	-19.56034	554.77319	-72.64184	-34.59184	565.60278	824.35272	115.59756	563.80176	805.15808	
5262	52.610	-259.14175	18.78189	142.72189	201.78864	117.07167	60.41141	-218.60207	30.78298	598.73059	263.98663	27.33843	501.40561	-85.82330	813.43500	-82.35175	-170.50047	551.89478	-48.12819	-19.22817	554.77441	-72.35405	-34.58501	565.81281	824.57782	116.06747	564.10382	805.64465	
5263	52.620	-259.07874	18.77995	142.71680	200.74007	105.66135	61.57294	-218.59627	30.85463	598.70874	264.10358	27.42903	501.46402	-85.28770	813.43335	-82.10511	-170.14275	551.95068	-47.74266	-18.97996	554.84137	-72.13998	-34.30532	565.94067	824.88770	116.85442	564.54480	806.23694	
5264	52.630	-259.02936	18.78039	142.73697	199.46245	93.73348	63.46512	-218.43620	30.93771	598.79767	264.17538	27.40292	501.45010	-84.78088	813.47772	-81.71246	-169.75545	552.05646	-47.34087	-18.66722	554.93140	-71.84322	-33.21508	565.95416	825.94330	116.11985	563.52167	805.36615	
5265	52.640	-258.94308	18.79688	142.78152	199.33934	82.90272	65.10153	-218.34770	31.00515	598.83832	264.21899	27.36691	501.44690	-84.33296	813.49347	-81.47707	-169.43239	552.12213	-47.11384	-18.29980	554.85712	-71.38082	-33.82969	566.22699	826.05713	116.47230	563.33502	805.62927	
5266	52.650	-258.87234	18.83130	142.80800	197.61301	72.49921	66.94706	-218.20938	31.02829	598.89996	264.29672	27.35516	501.46527	-83.84001	813.48553	-81.12940	-169.10811	552.09900	-46.87279	-17.68547	554.79169	-71.01809	-33.53760	566.09351	826.25330	114.53809	561.17926	803.30548	
5267	52.660	-258.71814	18.87302	142.84572	197.30379	61.81771	68.03767	-218.06618	31.04522	598.91003	264.42102	27.24393	501.40115	-83.50642	813.41083	-80.70804	-168.75903	552.14734	-46.70575	-17.10378	554.71484	-70.60332	-33.24472	565.98932	826.38147	115.18295	561.48663	803.70001	
5268	52.670	-258.60934	18.90714	142.88548	197.19153	51.67800	68.57919	-217.97021	31.04574	598.92181	264.52127	27.23391	501.41306	-83.22233	813.35028	-80.47330	-168.37584	552.06897	-46.34581	-16.78113	554.59045	-70.34961	-32.98543	565.84497	826.53088	115.63260	561.55029	804.30695	
5269	52.680	-258.49725	18.91183	142.89272	197.30124	41.34261	68.74676	-217.91022	31.05992	598.94427	264.60938	27.16281	501.33588	-82.81094	813.20044	-80.23483	-168.01323	551.94666	-45.95828	-16.62094	554.52448	-70.19241	-32.31669	565.92969	827.21497	116.50691	562.34576	805.31067	
5270	52.690	-258.43643	18.92820	142.91267	196.68997	30.80916	68.90968	-217.82497	31.08154	598.96429	264.74899	27.22578	501.35828	-82.36006	813.10498	-80.02061	-167.66888	551.86053	-45.66070	-16.30924	554.48853	-69.63088	-31.93058	565.97223	827.45087	117.09653	562.41998	805.67242	
5271	52.700	-258.36594	18.92492	142.90237	197.36288	22.69316	67.09505	-217.70444	31.05220	598.92639	264.68192	27.18751	501.34647	-81.93511	813.05255	-79.76707	-167.28195	551.78986	-45.37220	-15.89988	554.48016	-69.42391	-32.00706	565.89716	827.31732	117.65543	562.19861	805.79248	
5272	52.710	-258.13699	19.21662	142.72369	198.63000	23.98247	69.94604	-217.70506	30.93729	598.95728	264.75922	27.12531	501.17532	-81.64243	813.16632	-79.52131	-167.06680	551.99213	-45.15925	-15.83447	554.94653	-69.52059	-31.54550	566.09827	828.27246	118.03365	562.42004	806.27112	
5273	52.720	-258.05493	19.72391	142.99820	198.33777	25.46931	69.04788	-217.70743	30.13437	598.55164	264.64948	27.59711	501.19498	-82.53600	814.38074	-78.72413	-166.73843	552.94269	-45.01365	-15.12349	556.25043	-68.69666	-31.51930	566.10742	828.22528	118.46367	563.02692	806.82684	
5274	52.730	-258.09418	19.67135	143.17671	197.32654	25.41214	68.35747	-217.65422	30.58391	598.87122	264.83640	27.87414	501.52466	-83.19617	815.67975	-78.09286	-166.48668	553.38959	-44.59084	-15.05103	556.82074	-68.72708	-31.00328	566.78333	828.33496	118.71013	563.46442	807.00201	
5275	52.740	-258.15521	19.59087	143.30151	196.65109	24.85106	69.39650	-217.51631	30.54216	598.68982	264.98853	27.67213	501.41284	-83.18782	816.41217	-77.77297	-166.53961	553.82288	-44.28510	-15.05995	557.11798	-68.49879	-30.62938	567.45374	828.43011	119.29207	564.23358	807.22797	
5276	52.750	-258.10721	19.50004	143.35503	196.67841	24.75853	69.49034	-217.35904	30.62941	598.79260	265.09677	27.58298	501.29599	-82.95522	816.43768	-77.73027	-166.49030	554.00037	-44.00613	-14.96611	557.45837	-68.38226	-29.87132	567.75500	829.30200	120.78635	565.34717	808.38904	
5277	52.760	-257.99362	19.51106	143.36728	196.66437	24.63523	69.32403	-217.19975	30.54229	598.69989	265.24438	27.50232	501.25745	-82.94927	816.24213	-77.82118	-166.30553	554.17120	-43.92965	-14.73052	557.83105	-68.01390	-29.10181	567.94849	829.33203	120.70650	565.08722	807.41956	
5278	52.770	-257.95346	19.56047	143.40147	196.92212	24.61683	69.43259	-217.05995	30.70115	598.74921	265.27460	27.33777	501.15634	-82.83385	816.21045	-77.99745	-166.03775	554.21881	-43.85211	-14.59457	557.80884	-68.36131	-27.97099	568.38525	829.54480	121.06785	565.41119	807.28296	
